<svg data-v-423bf9ae="" xmlns="http://www.w3.org/2000/svg" viewBox="-50 0 200 90" class="iconLeftSlogan"><!----><!----><!----><g data-v-423bf9ae="" id="b50b3d80-27c5-480b-989d-98bfcb13c37a" transform="matrix(1.004587566137341,0,0,1.004587566137341,-6.2096976354199995,-5.023607614922753)" stroke="none" fill="url(#fa59c25f-dbf6-4d31-acca-479e65d83bd0)"><path d="M27.042 51.733l.177-.075c-2.122-5.003.22-10.801 5.226-12.922 5.002-2.124 10.801.221 12.922 5.224l1.198-.508 23.07-9.786c-2.123-5.003.221-10.801 5.227-12.924 5.002-2.121 10.801.223 12.922 5.227l4.508-1.914 1.102-.467.15-.063-6.939-16.353-1.252.532 5.439 12.819-1.252.531c-1.096-2.58-3.092-7.287-3.885-9.156-1.117-2.635-3.029-4.701-7.848-3.174-1.455.461-7.555 2.711-15.348 5.621L50.836 5.146l-17.392 7.377L8.837 22.961l11.842 27.917 6.363.855zM50.277 9.291l8.248 6.526c-5.438 2.035-11.4 4.278-17.057 6.41l-3.307-7.797 12.116-5.139zM12.039 45.824a2.392 2.392 0 1 0 4.403-1.867L11.67 32.712a2.39 2.39 0 1 0-4.401 1.868l4.77 11.244z"></path><path d="M32.975 39.986a8.499 8.499 0 0 0-4.504 11.143c1.832 4.321 6.82 6.336 11.141 4.505a8.5 8.5 0 0 0-6.637-15.648zm4.646 10.953a3.4 3.4 0 0 1-2.655-6.259 3.4 3.4 0 0 1 2.655 6.259zM75.391 21.994c-4.32 1.834-6.338 6.821-4.504 11.141a8.497 8.497 0 1 0 15.645-6.636 8.498 8.498 0 0 0-11.141-4.505zm4.646 10.952a3.4 3.4 0 1 1-2.655-6.258 3.4 3.4 0 0 1 2.655 6.258z"></path><path d="M93.031 28.439l-7.146 11.146H71.031l-5.744 6.748-15.835 3.427-8.968 7.819h-8.127l-4.563 2.348-11.163.979-9.899 15.695v18.134h89.945V26.996l-3.646 1.443zm1.108 63.756H9.271V77.334l8.836-14.008 9.909-.87.496-.045.443-.229 4.017-2.065H41.436l.717-.624 8.476-7.391 15.194-3.286.84-.184.559-.652 4.982-5.855h15.071l.748-1.168 6.117-9.543v60.781z"></path><path d="M27.794 69.092h-5.479l-3.677 7.491a.634.634 0 0 0 1.139.559l3.329-6.78h4.688a.635.635 0 1 0 0-1.27zM74.414 48.171a.632.632 0 0 0-.873.208l-4.549 7.4-7.432 2.447a.638.638 0 0 0-.406.803.641.641 0 0 0 .804.405l7.871-2.593 4.793-7.797a.633.633 0 0 0-.208-.873zM64.021 73.375l-14.505-1.331-5.242 7.437a.632.632 0 0 0 .154.883c.11.08.238.117.364.117a.64.64 0 0 0 .52-.269l4.819-6.837 13.775 1.265a.63.63 0 0 0 .689-.572.637.637 0 0 0-.574-.693zM85.627 81.259l-6.951 2.821-3.055-3.251a.633.633 0 1 0-.923.868l3.648 3.885 7.758-3.146a.638.638 0 0 0 .348-.829.633.633 0 0 0-.825-.348zM86.732 66.365a.633.633 0 0 0 .895.054L90.26 64.1l1.398-11.312a.63.63 0 0 0-.551-.707.627.627 0 0 0-.709.551l-1.34 10.836-2.27 2a.64.64 0 0 0-.056.897z"></path></g><defs data-v-423bf9ae=""><linearGradient data-v-423bf9ae="" gradientTransform="rotate(25)" id="fa59c25f-dbf6-4d31-acca-479e65d83bd0" x1="0%" y1="0%" x2="100%" y2="0%"><stop data-v-423bf9ae="" offset="0%" style="stop-color: rgb(253, 146, 69); stop-opacity: 1;"></stop><stop data-v-423bf9ae="" offset="100%" style="stop-color: rgb(6, 169, 107); stop-opacity: 1;"></stop></linearGradient></defs></svg>