<svg data-v-423bf9ae="" xmlns="http://www.w3.org/2000/svg" viewBox="0 0 620 90" class="iconLeftSlogan"><!----><!----><!----><g data-v-423bf9ae="" id="ceb63c39-afc8-4909-97ab-7c493d771725" fill="black" transform="matrix(5.063291383733213,0,0,5.063291383733213,109.75002633111839,-4.50633009355662)"><path d="M8.44 8.14L7.63 8.14L7.63 2.10L4.36 2.10L0.12 10.40L5.04 10.40L5.04 12.60L7.63 12.60L7.63 10.40L8.44 10.40ZM3.26 8.14L5.04 4.46L5.04 8.14ZM17.97 5.60L14.88 5.60L13.44 7.28L12.01 5.60L8.93 5.60L11.90 9.10L8.93 12.60L12.04 12.60L13.46 10.94L14.86 12.60L17.97 12.60L15.00 9.12ZM26.25 8.14L25.45 8.14L25.45 2.10L22.17 2.10L17.94 10.40L22.86 10.40L22.86 12.60L25.45 12.60L25.45 10.40L26.25 10.40ZM21.07 8.14L22.86 4.46L22.86 8.14ZM31.36 12.74C33.81 12.74 35.33 11.22 35.33 9.10C35.33 6.98 33.81 5.46 31.36 5.46C28.89 5.46 27.37 6.98 27.37 9.10C27.37 11.22 28.89 12.74 31.36 12.74ZM31.36 10.48C30.54 10.47 29.96 9.91 29.96 9.10C29.96 8.30 30.54 7.74 31.36 7.72C32.17 7.74 32.74 8.30 32.74 9.10C32.74 9.91 32.17 10.47 31.36 10.48ZM41.27 5.60L39.67 5.60L39.67 4.04C39.67 3.48 39.94 3.13 40.37 3.13L41.23 3.13L41.23 1.12C41.06 1.00 40.57 0.89 40.04 0.89C38.43 0.89 37.07 2.13 37.07 3.75L37.07 5.60L35.89 5.60L35.89 7.53L37.07 7.53L37.07 12.60L39.67 12.60L39.67 7.53L41.27 7.53ZM46.69 5.60L45.10 5.60L45.10 4.04C45.10 3.48 45.36 3.13 45.80 3.13L46.66 3.13L46.66 1.12C46.48 1.00 45.99 0.89 45.47 0.89C43.86 0.89 42.49 2.13 42.49 3.75L42.49 5.60L41.32 5.60L41.32 7.53L42.49 7.53L42.49 12.60L45.10 12.60L45.10 7.53L46.69 7.53ZM52.06 5.46C51.29 5.46 50.65 5.88 50.21 6.58L50.21 5.60L47.62 5.60L47.62 12.60L50.21 12.60L50.21 9.38C50.21 8.28 50.93 7.72 51.96 7.72C52.24 7.72 52.48 7.75 52.66 7.79L52.66 5.55C52.50 5.50 52.27 5.46 52.06 5.46ZM57.03 12.74C59.48 12.74 61.01 11.22 61.01 9.10C61.01 6.98 59.48 5.46 57.03 5.46C54.56 5.46 53.04 6.98 53.04 9.10C53.04 11.22 54.56 12.74 57.03 12.74ZM57.03 10.48C56.21 10.47 55.63 9.91 55.63 9.10C55.63 8.30 56.21 7.74 57.03 7.72C57.84 7.74 58.41 8.30 58.41 9.10C58.41 9.91 57.84 10.47 57.03 10.48ZM70.35 10.50C70.07 10.50 69.75 10.45 69.75 9.89L69.75 5.60L67.17 5.60L67.17 6.11C66.69 5.71 66.08 5.46 65.34 5.46C63.44 5.46 61.95 7.05 61.95 9.10C61.95 11.15 63.44 12.74 65.34 12.74C66.36 12.74 67.15 12.29 67.66 11.53C68.16 12.27 69.00 12.74 70 12.74C70.23 12.74 70.44 12.67 70.59 12.60L70.59 10.50ZM65.94 10.48C65.15 10.48 64.54 9.89 64.54 9.10C64.54 8.31 65.15 7.72 65.94 7.72C66.69 7.72 67.32 8.31 67.32 9.10C67.32 9.22 67.31 9.35 67.27 9.45L67.20 9.66C66.99 10.15 66.50 10.48 65.94 10.48ZM76.58 0.91L76.58 6.11C76.11 5.71 75.50 5.46 74.76 5.46C72.85 5.46 71.36 7.05 71.36 9.10C71.36 11.15 72.85 12.74 74.76 12.74C75.50 12.74 76.11 12.50 76.58 12.09L76.58 12.62L79.17 12.60L79.17 0.89ZM75.36 10.48C74.57 10.48 73.95 9.89 73.95 9.10C73.95 8.31 74.57 7.72 75.36 7.72C76.11 7.72 76.74 8.31 76.74 9.10C76.74 9.89 76.11 10.48 75.36 10.48ZM84.54 5.44C82.20 5.44 80.62 6.84 80.62 9.10C80.62 11.34 82.18 12.74 84.61 12.74C86.66 12.74 87.94 11.73 88.25 10.20L85.79 10.20C85.66 10.66 85.26 10.92 84.59 10.92C83.67 10.92 83.30 10.43 83.23 9.52L88.34 9.52L88.34 9.08C88.36 6.84 86.87 5.44 84.54 5.44ZM84.59 7.35C85.23 7.35 85.58 7.61 85.73 8.09L83.37 8.09C83.55 7.61 83.91 7.35 84.59 7.35ZM94.22 5.46C93.45 5.46 92.80 5.88 92.36 6.58L92.36 5.60L89.78 5.60L89.78 12.60L92.36 12.60L92.36 9.38C92.36 8.28 93.08 7.72 94.11 7.72C94.39 7.72 94.64 7.75 94.81 7.79L94.81 5.55C94.66 5.50 94.43 5.46 94.22 5.46ZM98.11 12.74C99.80 12.74 100.77 11.73 100.77 10.40C100.77 8.94 99.54 8.37 98.53 7.96C98.14 7.81 97.95 7.74 97.95 7.58C97.95 7.46 98.05 7.32 98.39 7.32C98.84 7.32 99.26 7.58 99.51 7.81L100.64 6.32C100.03 5.81 99.19 5.46 98.19 5.46C96.41 5.46 95.41 6.62 95.41 7.79C95.41 9.28 97.04 9.71 97.67 9.96C98.25 10.17 98.39 10.33 98.39 10.48C98.39 10.66 98.21 10.76 97.91 10.76C97.65 10.76 97.20 10.69 96.81 10.08L94.99 11.03C95.45 12.18 96.83 12.74 98.11 12.74Z"></path></g><!----><g data-v-423bf9ae="" id="62f544e2-b77b-4d09-a8b8-ea5d12504a7e" transform="matrix(1.004587566137341,0,0,1.004587566137341,-6.2096976354199995,-5.023607614922753)" stroke="none" fill="black"><path d="M27.042 51.733l.177-.075c-2.122-5.003.22-10.801 5.226-12.922 5.002-2.124 10.801.221 12.922 5.224l1.198-.508 23.07-9.786c-2.123-5.003.221-10.801 5.227-12.924 5.002-2.121 10.801.223 12.922 5.227l4.508-1.914 1.102-.467.15-.063-6.939-16.353-1.252.532 5.439 12.819-1.252.531c-1.096-2.58-3.092-7.287-3.885-9.156-1.117-2.635-3.029-4.701-7.848-3.174-1.455.461-7.555 2.711-15.348 5.621L50.836 5.146l-17.392 7.377L8.837 22.961l11.842 27.917 6.363.855zM50.277 9.291l8.248 6.526c-5.438 2.035-11.4 4.278-17.057 6.41l-3.307-7.797 12.116-5.139zM12.039 45.824a2.392 2.392 0 1 0 4.403-1.867L11.67 32.712a2.39 2.39 0 1 0-4.401 1.868l4.77 11.244z"></path><path d="M32.975 39.986a8.499 8.499 0 0 0-4.504 11.143c1.832 4.321 6.82 6.336 11.141 4.505a8.5 8.5 0 0 0-6.637-15.648zm4.646 10.953a3.4 3.4 0 0 1-2.655-6.259 3.4 3.4 0 0 1 2.655 6.259zM75.391 21.994c-4.32 1.834-6.338 6.821-4.504 11.141a8.497 8.497 0 1 0 15.645-6.636 8.498 8.498 0 0 0-11.141-4.505zm4.646 10.952a3.4 3.4 0 1 1-2.655-6.258 3.4 3.4 0 0 1 2.655 6.258z"></path><path d="M93.031 28.439l-7.146 11.146H71.031l-5.744 6.748-15.835 3.427-8.968 7.819h-8.127l-4.563 2.348-11.163.979-9.899 15.695v18.134h89.945V26.996l-3.646 1.443zm1.108 63.756H9.271V77.334l8.836-14.008 9.909-.87.496-.045.443-.229 4.017-2.065H41.436l.717-.624 8.476-7.391 15.194-3.286.84-.184.559-.652 4.982-5.855h15.071l.748-1.168 6.117-9.543v60.781z"></path><path d="M27.794 69.092h-5.479l-3.677 7.491a.634.634 0 0 0 1.139.559l3.329-6.78h4.688a.635.635 0 1 0 0-1.27zM74.414 48.171a.632.632 0 0 0-.873.208l-4.549 7.4-7.432 2.447a.638.638 0 0 0-.406.803.641.641 0 0 0 .804.405l7.871-2.593 4.793-7.797a.633.633 0 0 0-.208-.873zM64.021 73.375l-14.505-1.331-5.242 7.437a.632.632 0 0 0 .154.883c.11.08.238.117.364.117a.64.64 0 0 0 .52-.269l4.819-6.837 13.775 1.265a.63.63 0 0 0 .689-.572.637.637 0 0 0-.574-.693zM85.627 81.259l-6.951 2.821-3.055-3.251a.633.633 0 1 0-.923.868l3.648 3.885 7.758-3.146a.638.638 0 0 0 .348-.829.633.633 0 0 0-.825-.348zM86.732 66.365a.633.633 0 0 0 .895.054L90.26 64.1l1.398-11.312a.63.63 0 0 0-.551-.707.627.627 0 0 0-.709.551l-1.34 10.836-2.27 2a.64.64 0 0 0-.056.897z"></path></g><!----><g data-v-423bf9ae="" id="88d102b5-bc2f-44e1-9e0a-000b6229c99d" fill="black" transform="matrix(1.4449599740240668,0,0,1.4449599740240668,111.42726962046456,59.02306584793248)"><path d="M5.38 1.59L5.38 1.59Q4.28 1.45 2.60 1.75L2.60 1.75L2.60 1.75Q2.60 1.74 2.61 1.70L2.61 1.70L2.61 1.70Q2.63 1.66 2.63 1.64L2.63 1.64L2.63 1.64Q2.69 1.39 2.04 1.50L2.04 1.50L2.04 1.50Q1.74 1.56 1.49 1.67L1.49 1.67L1.49 1.67Q1.22 1.80 1.19 1.90L1.19 1.90L1.19 1.90Q1.20 1.88 1.14 2.08L1.14 2.08L1.14 2.08Q0.95 2.18 0.89 2.30L0.89 2.30L0.89 2.30Q0.82 2.43 1.04 2.45L1.04 2.45L1.04 2.45Q-0.23 7.25-0.74 10.98L-0.74 10.98L-0.74 10.98Q-0.75 11.10-0.37 11.07L-0.37 11.07L-0.37 11.07Q-0.12 11.05 0.05 11.00L0.05 11.00L0.05 11.00Q0.69 10.83 0.72 10.59L0.72 10.59L0.72 10.59Q0.94 8.95 1.31 7.16L1.31 7.16L1.31 7.16Q1.24 7.17 2.30 7.09L2.30 7.09L2.30 7.09Q2.94 7.05 3.27 6.75L3.27 6.75L3.27 6.75Q3.43 6.60 3.24 6.54L3.24 6.54L3.24 6.54Q3.11 6.50 2.93 6.51L2.93 6.51L2.93 6.51Q1.80 6.60 1.41 6.66L1.41 6.66L1.41 6.66Q1.83 4.65 2.47 2.24L2.47 2.24L2.47 2.24Q3.49 2.06 4.18 2.15L4.18 2.15L4.18 2.15Q4.66 2.21 5.20 1.96L5.20 1.96L5.20 1.96Q5.34 1.89 5.45 1.78L5.45 1.78L5.45 1.78Q5.60 1.62 5.38 1.59L5.38 1.59ZM12.05 2.53L12.05 2.53Q11.81 3.62 11.19 6.79L11.19 6.79L11.19 6.79Q10.95 8.03 10.76 8.93L10.76 8.93L10.76 8.93Q10.37 10.78 10.36 10.91L10.36 10.91L10.36 10.91Q10.36 10.99 10.59 11.00L10.59 11.00L10.59 11.00Q10.81 11.01 11.09 10.96L11.09 10.96L11.09 10.96Q11.82 10.81 11.83 10.52L11.83 10.52L11.83 10.52Q11.83 10.23 11.99 9.62L11.99 9.62L11.99 9.62Q12.07 9.32 12.22 8.57L12.22 8.57L12.22 8.57Q12.39 7.77 12.65 6.44L12.65 6.44L12.65 6.44Q13.25 3.36 13.49 2.27L13.49 2.27L13.49 2.27Q13.55 2.02 12.91 2.13L12.91 2.13L12.91 2.13Q12.61 2.19 12.35 2.31L12.35 2.31L12.35 2.31Q12.07 2.44 12.05 2.53L12.05 2.53ZM26.11 0.74L26.11 0.74Q25.80 0.79 25.55 0.91L25.55 0.91L25.55 0.91Q25.27 1.04 25.25 1.13L25.25 1.13L25.25 1.13Q24.36 3.96 23.74 7.39L23.74 7.39L23.74 7.39Q23.66 6.88 23.54 6.21L23.54 6.21L23.54 6.21Q23.25 4.44 23.20 4.05L23.20 4.05L23.20 4.05Q23.05 2.77 22.86 2.37L22.86 2.37L22.86 2.37Q22.86 2.37 22.85 2.35L22.85 2.35L22.85 2.34L22.85 2.34Q22.85 2.34 22.85 2.33L22.85 2.33L22.85 2.33Q22.89 2.08 22.26 2.20L22.26 2.20L22.26 2.20Q21.96 2.26 21.71 2.37L21.71 2.37L21.71 2.37Q21.42 2.51 21.41 2.60L21.41 2.60L21.41 2.60Q21.23 3.71 20.58 6.73L20.58 6.73L20.58 6.73Q20.04 9.34 19.83 10.89L19.83 10.89L19.83 10.89Q19.82 11.01 20.20 10.98L20.20 10.98L20.20 10.98Q20.45 10.96 20.62 10.91L20.62 10.91L20.62 10.91Q21.27 10.74 21.29 10.50L21.29 10.50L21.29 10.50Q21.49 8.97 22.05 6.38L22.05 6.38L22.05 6.38Q22.07 6.54 22.08 6.61L22.08 6.61L22.08 6.61Q22.30 7.90 22.48 8.95L22.48 8.95L22.48 8.95Q22.74 10.45 22.96 11.09L22.96 11.09L22.96 11.09Q23.02 11.24 23.36 11.21L23.36 11.21L23.36 11.21Q23.67 11.18 24.01 11.05L24.01 11.05L24.01 11.05Q24.60 10.89 24.63 10.65L24.63 10.65L24.63 10.65Q25.40 5.00 26.69 0.87L26.69 0.87L26.69 0.87Q26.77 0.62 26.11 0.74L26.11 0.74ZM37.47 3.48L37.47 3.48Q37.43 1.70 36.58 1.01L36.58 1.01L36.58 1.01Q36.11 0.64 35.22 0.68L35.22 0.68L35.22 0.68Q34.22 0.72 32.97 1.40L32.97 1.40L32.97 1.40Q32.79 1.50 32.82 1.60L32.82 1.60L32.82 1.60Q32.85 1.70 33.05 1.71L33.05 1.71L33.05 1.71Q33.55 1.72 34.08 1.44L34.08 1.44L34.08 1.44Q34.10 1.43 34.12 1.42L34.12 1.42L34.12 1.42Q34.16 1.39 34.24 1.35L34.24 1.35L34.24 1.35Q34.28 1.34 34.36 1.31L34.36 1.31L34.36 1.31Q34.38 1.29 34.49 1.26L34.49 1.26L34.50 1.26L34.50 1.26Q34.51 1.25 34.51 1.26L34.51 1.26L34.51 1.26Q34.51 1.25 34.54 1.25L34.54 1.25L34.54 1.25Q34.57 1.25 34.61 1.26L34.61 1.26L34.61 1.26Q34.62 1.26 34.64 1.26L34.64 1.26L34.64 1.26Q34.69 1.26 34.69 1.26L34.69 1.26L34.69 1.26Q34.77 1.28 34.87 1.31L34.87 1.31L34.87 1.31Q34.88 1.31 34.88 1.31L34.88 1.31L34.88 1.31Q34.88 1.31 34.88 1.31L34.88 1.31L34.88 1.31Q34.91 1.33 34.96 1.35L34.96 1.35L34.96 1.35Q35.01 1.37 35.10 1.43L35.10 1.43L35.10 1.43Q35.23 1.51 35.36 1.65L35.36 1.65L35.36 1.65Q35.55 1.85 35.71 2.23L35.71 2.23L35.71 2.23Q36.31 3.66 35.77 6.11L35.77 6.11L35.77 6.11Q35.42 7.70 34.71 8.97L34.71 8.97L34.71 8.97Q34.36 9.60 33.95 10.03L33.95 10.03L33.95 10.03Q33.78 10.22 33.56 10.39L33.56 10.39L33.56 10.39Q34.65 5.68 35.12 1.78L35.12 1.78L35.12 1.78Q35.12 1.71 34.90 1.70L34.90 1.70L34.90 1.70Q34.69 1.69 34.41 1.74L34.41 1.74L34.41 1.74Q33.69 1.87 33.65 2.17L33.65 2.17L33.65 2.17Q33.18 6.19 32.01 11.16L32.01 11.16L32.01 11.16Q31.94 11.42 32.59 11.30L32.59 11.30L32.59 11.30Q32.89 11.25 33.14 11.12L33.14 11.12L33.14 11.12Q33.34 11.03 33.40 10.97L33.40 10.97L33.40 10.97Q33.67 10.93 34.05 10.77L34.05 10.77L34.05 10.77Q35.62 10.12 36.60 7.78L36.60 7.78L36.60 7.78Q37.51 5.63 37.47 3.48L37.47 3.48ZM59.89 1.12L59.89 1.12Q59.86 0.90 59.12 1.07L59.12 1.07L59.12 1.07Q58.39 1.25 58.43 1.51L58.43 1.51L58.43 1.51Q58.61 2.73 58.39 4.12L58.39 4.12L58.39 4.12Q58.12 5.76 57.37 6.75L57.37 6.75L57.37 6.75Q57.22 6.95 56.96 7.16L56.96 7.16L56.96 7.16Q56.90 7.23 56.79 7.29L56.79 7.29L56.79 7.29Q56.79 7.29 56.71 7.34L56.71 7.34L56.70 7.34L56.70 7.34Q56.70 7.34 56.70 7.34L56.70 7.34L56.70 7.34Q56.63 7.36 56.56 7.38L56.56 7.38L56.55 7.37L56.55 7.37Q56.55 7.37 56.54 7.37L56.54 7.37L56.54 7.37Q56.51 7.36 56.44 7.35L56.44 7.35L56.44 7.35Q56.43 7.35 56.40 7.33L56.40 7.33L56.40 7.33Q56.40 7.33 56.38 7.33L56.38 7.33L56.38 7.33Q55.78 7.06 55.79 5.83L55.79 5.83L55.79 5.83Q55.79 4.47 56.75 1.59L56.75 1.59L56.75 1.59Q56.83 1.34 56.16 1.46L56.16 1.46L56.16 1.46Q55.39 1.60 55.31 1.85L55.31 1.85L55.31 1.85Q54.44 4.44 54.34 5.87L54.34 5.87L54.34 5.87Q54.24 7.12 54.76 7.65L54.76 7.65L54.76 7.65Q55.03 7.94 55.64 7.96L55.64 7.96L55.64 7.96Q55.78 7.97 55.94 7.96L55.94 7.96L55.94 7.96Q55.88 8.59 55.36 10.68L55.36 10.68L55.36 10.68Q55.30 10.94 55.94 10.82L55.94 10.82L55.94 10.82Q56.25 10.77 56.50 10.65L56.50 10.65L56.50 10.65Q56.78 10.52 56.80 10.42L56.80 10.42L56.80 10.42Q57.34 8.28 57.40 7.59L57.40 7.59L57.40 7.59Q57.44 7.57 57.45 7.57L57.45 7.57L57.45 7.57Q59.04 6.90 59.65 4.67L59.65 4.67L59.65 4.67Q60.16 2.84 59.89 1.12L59.89 1.12ZM69.57 5.20L69.57 5.20Q69.45 6.64 69.18 7.92L69.18 7.92L69.18 7.92Q68.77 9.88 68.00 10.64L68.00 10.64L68.00 10.64Q67.91 10.55 67.83 10.38L67.83 10.38L67.83 10.38Q67.65 9.97 67.66 9.03L67.66 9.03L67.66 9.03Q67.69 7.34 68.26 5.48L68.26 5.48L68.26 5.48Q68.76 3.85 69.46 3.01L69.46 3.01L69.46 3.01Q69.54 3.25 69.58 3.62L69.58 3.62L69.58 3.62Q69.65 4.21 69.57 5.20L69.57 5.20ZM70.50 1.96L70.50 1.96Q70.29 1.79 69.56 2.05L69.56 2.05L69.56 2.05Q69.06 2.24 69.08 2.39L69.08 2.39L69.08 2.39Q68.82 2.48 68.65 2.63L68.65 2.63L68.65 2.63Q67.66 3.40 67.00 5.22L67.00 5.22L67.00 5.22Q66.45 6.70 66.26 8.50L66.26 8.50L66.26 8.50Q66.18 9.28 66.21 9.92L66.21 9.92L66.21 9.92Q66.25 10.77 66.61 11.13L66.61 11.13L66.61 11.13Q66.79 11.31 67.22 11.33L67.22 11.33L67.22 11.33Q67.76 11.36 68.59 11.02L68.59 11.02L68.59 11.02Q69.28 10.74 69.79 9.94L69.79 9.94L69.79 9.94Q70.27 9.21 70.58 7.85L70.58 7.85L70.58 7.85Q70.79 6.94 70.92 5.84L70.92 5.84L70.92 5.84Q71.08 4.44 71.08 3.78L71.08 3.78L71.08 3.78Q71.07 2.45 70.50 1.96L70.50 1.96ZM82.39 2.21L82.39 2.21Q81.76 2.38 81.72 2.63L81.72 2.63L81.72 2.63Q81.67 3.01 81.51 4.51L81.51 4.51L81.51 4.51Q81.39 5.69 81.25 6.41L81.25 6.41L81.25 6.41Q80.85 8.57 79.75 9.83L79.75 9.83L79.75 9.83Q79.60 10.00 79.49 10.12L79.49 10.12L79.49 10.12Q79.23 9.61 79.19 8.40L79.19 8.40L79.19 8.40Q79.13 6.90 80.06 4.58L80.06 4.58L80.06 4.58Q80.74 2.88 80.90 2.40L80.90 2.40L80.90 2.40Q80.99 2.15 80.32 2.26L80.32 2.26L80.32 2.26Q79.55 2.41 79.46 2.66L79.46 2.66L79.46 2.66Q79.30 3.12 78.74 4.53L78.74 4.53L78.74 4.53Q78.28 5.71 78.07 6.43L78.07 6.43L78.07 6.43Q77.40 8.66 77.97 10.36L77.97 10.36L77.97 10.36Q78.07 10.68 78.27 10.83L78.27 10.83L78.27 10.83Q78.50 11.03 79.15 10.92L79.15 10.92L79.15 10.92Q80.16 10.73 81.07 9.71L81.07 9.71L81.07 9.71Q82.24 8.41 82.67 6.34L82.67 6.34L82.67 6.34Q82.82 5.55 82.96 4.29L82.96 4.29L82.96 4.29Q83.14 2.58 83.19 2.24L83.19 2.24L83.19 2.24Q83.20 2.11 82.82 2.14L82.82 2.14L82.82 2.14Q82.56 2.16 82.39 2.21L82.39 2.21ZM93.63 5.31L93.63 5.31Q93.47 6.24 92.58 7.18L92.58 7.18L92.58 7.18Q92.39 7.38 92.15 7.58L92.15 7.58L92.15 7.58Q92.09 7.63 92.03 7.68L92.03 7.68L92.03 7.68Q91.81 7.59 91.55 7.58L91.55 7.58L91.55 7.58Q92.11 4.74 92.26 2.66L92.26 2.66L92.26 2.66Q92.52 2.80 92.76 2.99L92.76 2.99L92.76 2.99Q93.28 3.39 93.51 4.03L93.51 4.03L93.51 4.03Q93.73 4.65 93.63 5.31L93.63 5.31ZM90.65 2.40L90.65 2.40Q90.65 2.40 90.67 2.39L90.67 2.39L90.67 2.39Q90.66 2.40 90.65 2.40L90.65 2.40ZM95.59 11.42L95.59 11.42Q94.86 10.88 93.32 8.99L93.32 8.99L93.32 8.99Q92.65 8.17 92.54 8.05L92.54 8.05L92.54 8.05Q93.00 7.84 93.43 7.50L93.43 7.50L93.43 7.50Q94.63 6.56 94.99 5.41L94.99 5.41L94.99 5.41Q95.23 4.60 95.03 3.84L95.03 3.84L95.03 3.84Q94.81 3.07 94.19 2.53L94.19 2.53L94.19 2.53Q92.95 1.46 90.88 1.88L90.88 1.88L90.88 1.88Q90.75 1.91 90.55 1.96L90.55 1.96L90.55 1.96Q89.81 2.14 89.87 2.37L89.87 2.37L89.87 2.37Q89.93 2.58 90.64 2.40L90.64 2.40L90.64 2.40Q90.71 2.39 90.76 2.38L90.76 2.38L90.76 2.38Q90.80 2.37 90.84 2.37L90.84 2.37L90.84 2.37Q90.72 5.11 89.48 10.79L89.48 10.79L89.48 10.79Q89.43 11.04 90.06 10.92L90.06 10.92L90.06 10.92Q90.37 10.87 90.62 10.75L90.62 10.75L90.62 10.75Q90.90 10.62 90.92 10.53L90.92 10.53L90.92 10.53Q91.22 9.17 91.31 8.72L91.31 8.72L91.31 8.72Q91.32 8.72 91.32 8.72L91.32 8.72L91.32 8.72Q91.33 8.72 91.33 8.72L91.33 8.72L91.33 8.72Q91.44 8.85 92.12 9.70L92.12 9.70L92.12 9.70Q93.44 11.34 94.21 11.92L94.21 11.92L94.21 11.92Q94.43 12.09 95.15 11.83L95.15 11.83L95.15 11.83Q95.33 11.76 95.48 11.67L95.48 11.67L95.48 11.67Q95.72 11.52 95.59 11.42L95.59 11.42ZM115.23 5.20L115.23 5.20Q115.11 6.64 114.84 7.92L114.84 7.92L114.84 7.92Q114.43 9.88 113.66 10.64L113.66 10.64L113.66 10.64Q113.57 10.55 113.50 10.38L113.50 10.38L113.50 10.38Q113.31 9.97 113.33 9.03L113.33 9.03L113.33 9.03Q113.35 7.34 113.93 5.48L113.93 5.48L113.93 5.48Q114.43 3.85 115.12 3.01L115.12 3.01L115.12 3.01Q115.20 3.25 115.25 3.62L115.25 3.62L115.25 3.62Q115.32 4.21 115.23 5.20L115.23 5.20ZM116.16 1.96L116.16 1.96Q115.96 1.79 115.22 2.05L115.22 2.05L115.22 2.05Q114.72 2.24 114.74 2.39L114.74 2.39L114.74 2.39Q114.49 2.48 114.31 2.63L114.31 2.63L114.31 2.63Q113.33 3.40 112.66 5.22L112.66 5.22L112.66 5.22Q112.12 6.70 111.92 8.50L111.92 8.50L111.92 8.50Q111.84 9.28 111.87 9.92L111.87 9.92L111.87 9.92Q111.91 10.77 112.27 11.13L112.27 11.13L112.27 11.13Q112.46 11.31 112.89 11.33L112.89 11.33L112.89 11.33Q113.43 11.36 114.26 11.02L114.26 11.02L114.26 11.02Q114.94 10.74 115.46 9.94L115.46 9.94L115.46 9.94Q115.93 9.21 116.25 7.85L116.25 7.85L116.25 7.85Q116.46 6.94 116.58 5.84L116.58 5.84L116.58 5.84Q116.74 4.44 116.74 3.78L116.74 3.78L116.74 3.78Q116.73 2.45 116.16 1.96L116.16 1.96ZM129.23 1.59L129.23 1.59Q128.13 1.45 126.44 1.75L126.44 1.75L126.44 1.75Q126.45 1.74 126.46 1.70L126.46 1.70L126.46 1.70Q126.47 1.66 126.47 1.64L126.47 1.64L126.47 1.64Q126.54 1.39 125.89 1.50L125.89 1.50L125.89 1.50Q125.59 1.56 125.34 1.67L125.34 1.67L125.34 1.67Q125.06 1.80 125.04 1.90L125.04 1.90L125.04 1.90Q125.04 1.88 124.99 2.08L124.99 2.08L124.99 2.08Q124.80 2.18 124.74 2.30L124.74 2.30L124.74 2.30Q124.67 2.43 124.89 2.45L124.89 2.45L124.89 2.45Q123.61 7.25 123.11 10.98L123.11 10.98L123.11 10.98Q123.09 11.10 123.48 11.07L123.48 11.07L123.48 11.07Q123.73 11.05 123.90 11.00L123.90 11.00L123.90 11.00Q124.54 10.83 124.57 10.59L124.57 10.59L124.57 10.59Q124.79 8.95 125.15 7.16L125.15 7.16L125.15 7.16Q125.08 7.17 126.14 7.09L126.14 7.09L126.14 7.09Q126.79 7.05 127.12 6.75L127.12 6.75L127.12 6.75Q127.28 6.60 127.09 6.54L127.09 6.54L127.09 6.54Q126.96 6.50 126.78 6.51L126.78 6.51L126.78 6.51Q125.65 6.60 125.25 6.66L125.25 6.66L125.25 6.66Q125.67 4.65 126.31 2.24L126.31 2.24L126.31 2.24Q127.33 2.06 128.02 2.15L128.02 2.15L128.02 2.15Q128.50 2.21 129.04 1.96L129.04 1.96L129.04 1.96Q129.19 1.89 129.29 1.78L129.29 1.78L129.29 1.78Q129.45 1.62 129.23 1.59L129.23 1.59ZM140.18 1.59L140.18 1.59Q139.08 1.45 137.40 1.75L137.40 1.75L137.40 1.75Q137.40 1.74 137.41 1.70L137.41 1.70L137.41 1.70Q137.42 1.66 137.42 1.64L137.42 1.64L137.42 1.64Q137.49 1.39 136.84 1.50L136.84 1.50L136.84 1.50Q136.54 1.56 136.29 1.67L136.29 1.67L136.29 1.67Q136.01 1.80 135.99 1.90L135.99 1.90L135.99 1.90Q135.99 1.88 135.94 2.08L135.94 2.08L135.94 2.08Q135.75 2.18 135.69 2.30L135.69 2.30L135.69 2.30Q135.62 2.43 135.84 2.45L135.84 2.45L135.84 2.45Q134.57 7.25 134.06 10.98L134.06 10.98L134.06 10.98Q134.05 11.10 134.43 11.07L134.43 11.07L134.43 11.07Q134.68 11.05 134.85 11.00L134.85 11.00L134.85 11.00Q135.49 10.83 135.52 10.59L135.52 10.59L135.52 10.59Q135.74 8.95 136.10 7.16L136.10 7.16L136.10 7.16Q136.04 7.17 137.09 7.09L137.09 7.09L137.09 7.09Q137.74 7.05 138.07 6.75L138.07 6.75L138.07 6.75Q138.23 6.60 138.04 6.54L138.04 6.54L138.04 6.54Q137.91 6.50 137.73 6.51L137.73 6.51L137.73 6.51Q136.60 6.60 136.21 6.66L136.21 6.66L136.21 6.66Q136.62 4.65 137.27 2.24L137.27 2.24L137.27 2.24Q138.28 2.06 138.97 2.15L138.97 2.15L138.97 2.15Q139.45 2.21 139.99 1.96L139.99 1.96L139.99 1.96Q140.14 1.89 140.25 1.78L140.25 1.78L140.25 1.78Q140.40 1.62 140.18 1.59L140.18 1.59ZM149.39 5.31L149.39 5.31Q149.24 6.24 148.34 7.18L148.34 7.18L148.34 7.18Q148.15 7.38 147.91 7.58L147.91 7.58L147.91 7.58Q147.85 7.63 147.79 7.68L147.79 7.68L147.79 7.68Q147.57 7.59 147.31 7.58L147.31 7.58L147.31 7.58Q147.88 4.74 148.02 2.66L148.02 2.66L148.02 2.66Q148.29 2.80 148.52 2.99L148.52 2.99L148.52 2.99Q149.04 3.39 149.27 4.03L149.27 4.03L149.27 4.03Q149.50 4.65 149.39 5.31L149.39 5.31ZM146.41 2.40L146.41 2.40Q146.41 2.40 146.43 2.39L146.43 2.39L146.43 2.39Q146.42 2.40 146.41 2.40L146.41 2.40ZM151.35 11.42L151.35 11.42Q150.62 10.88 149.08 8.99L149.08 8.99L149.08 8.99Q148.42 8.17 148.30 8.05L148.30 8.05L148.30 8.05Q148.76 7.84 149.19 7.50L149.19 7.50L149.19 7.50Q150.39 6.56 150.75 5.41L150.75 5.41L150.75 5.41Q150.99 4.60 150.79 3.84L150.79 3.84L150.79 3.84Q150.58 3.07 149.95 2.53L149.95 2.53L149.95 2.53Q148.71 1.46 146.64 1.88L146.64 1.88L146.64 1.88Q146.51 1.91 146.31 1.96L146.31 1.96L146.31 1.96Q145.57 2.14 145.63 2.37L145.63 2.37L145.63 2.37Q145.69 2.58 146.41 2.40L146.41 2.40L146.41 2.40Q146.47 2.39 146.52 2.38L146.52 2.38L146.52 2.38Q146.56 2.37 146.60 2.37L146.60 2.37L146.60 2.37Q146.48 5.11 145.24 10.79L145.24 10.79L145.24 10.79Q145.19 11.04 145.82 10.92L145.82 10.92L145.82 10.92Q146.13 10.87 146.38 10.75L146.38 10.75L146.38 10.75Q146.67 10.62 146.69 10.53L146.69 10.53L146.69 10.53Q146.98 9.17 147.08 8.72L147.08 8.72L147.08 8.72Q147.08 8.72 147.08 8.72L147.08 8.72L147.08 8.72Q147.09 8.72 147.09 8.72L147.09 8.72L147.09 8.72Q147.20 8.85 147.88 9.70L147.88 9.70L147.88 9.70Q149.20 11.34 149.97 11.92L149.97 11.92L149.97 11.92Q150.19 12.09 150.91 11.83L150.91 11.83L150.91 11.83Q151.09 11.76 151.24 11.67L151.24 11.67L151.24 11.67Q151.48 11.52 151.35 11.42L151.35 11.42ZM160.97 5.20L160.97 5.20Q160.85 6.64 160.58 7.92L160.58 7.92L160.58 7.92Q160.17 9.88 159.40 10.64L159.40 10.64L159.40 10.64Q159.31 10.55 159.24 10.38L159.24 10.38L159.24 10.38Q159.05 9.97 159.07 9.03L159.07 9.03L159.07 9.03Q159.09 7.34 159.67 5.48L159.67 5.48L159.67 5.48Q160.17 3.85 160.86 3.01L160.86 3.01L160.86 3.01Q160.94 3.25 160.99 3.62L160.99 3.62L160.99 3.62Q161.05 4.21 160.97 5.20L160.97 5.20ZM161.90 1.96L161.90 1.96Q161.70 1.79 160.96 2.05L160.96 2.05L160.96 2.05Q160.46 2.24 160.48 2.39L160.48 2.39L160.48 2.39Q160.23 2.48 160.05 2.63L160.05 2.63L160.05 2.63Q159.07 3.40 158.40 5.22L158.40 5.22L158.40 5.22Q157.86 6.70 157.66 8.50L157.66 8.50L157.66 8.50Q157.58 9.28 157.61 9.92L157.61 9.92L157.61 9.92Q157.65 10.77 158.01 11.13L158.01 11.13L158.01 11.13Q158.20 11.31 158.63 11.33L158.63 11.33L158.63 11.33Q159.17 11.36 160.00 11.02L160.00 11.02L160.00 11.02Q160.68 10.74 161.20 9.94L161.20 9.94L161.20 9.94Q161.67 9.21 161.98 7.85L161.98 7.85L161.98 7.85Q162.20 6.94 162.32 5.84L162.32 5.84L162.32 5.84Q162.48 4.44 162.48 3.78L162.48 3.78L162.48 3.78Q162.47 2.45 161.90 1.96L161.90 1.96ZM172.14 7.89L172.14 7.89Q172.04 7.90 171.14 7.84L171.14 7.84L171.14 7.84Q171.55 6.63 172.01 5.57L172.01 5.57L172.01 5.57Q172.17 5.18 172.72 3.95L172.72 3.95L172.72 3.95Q172.70 4.61 172.51 7.85L172.51 7.85L172.51 7.85Q172.34 7.87 172.14 7.89L172.14 7.89ZM173.95 1.18L173.95 1.18Q173.77 1.09 173.39 1.16L173.39 1.16L173.39 1.16Q172.74 1.27 172.53 1.55L172.53 1.55L172.53 1.55Q172.33 1.80 171.55 3.58L171.55 3.58L171.55 3.58Q171.42 3.90 171.06 4.70L171.06 4.70L171.06 4.70Q170.74 5.42 170.56 5.83L170.56 5.83L170.56 5.83Q170.15 6.79 169.77 7.86L169.77 7.86L169.77 7.86Q168.85 7.97 168.20 8.37L168.20 8.37L168.20 8.37Q168.02 8.48 168.05 8.58L168.05 8.58L168.05 8.58Q168.08 8.67 168.28 8.68L168.28 8.68L168.28 8.68Q168.80 8.70 169.27 8.43L169.27 8.43L169.27 8.43Q169.42 8.41 169.46 8.41L169.46 8.41L169.46 8.41Q169.52 8.41 169.59 8.41L169.59 8.41L169.59 8.41Q169.26 9.39 168.94 10.53L168.94 10.53L168.94 10.53Q168.88 10.79 169.53 10.67L169.53 10.67L169.53 10.67Q169.83 10.62 170.08 10.49L170.08 10.49L170.08 10.49Q170.36 10.37 170.39 10.27L170.39 10.27L170.39 10.27Q170.65 9.32 170.93 8.48L170.93 8.48L170.93 8.48Q171.22 8.50 171.42 8.47L171.42 8.47L171.42 8.47Q172.12 8.39 172.48 8.46L172.48 8.46L172.48 8.46Q172.37 10.55 172.37 12.02L172.37 12.02L172.37 12.02Q172.37 12.10 172.59 12.11L172.59 12.11L172.59 12.11Q172.81 12.12 173.10 12.06L173.10 12.06L173.10 12.06Q173.83 11.91 173.83 11.62L173.83 11.62L173.83 11.62Q173.83 9.90 174.04 6.45L174.04 6.45L174.04 6.45Q174.23 3.00 174.23 1.27L174.23 1.27L174.23 1.27Q174.23 1.18 173.95 1.18L173.95 1.18ZM186.49 3.48L186.49 3.48Q186.45 1.70 185.60 1.01L185.60 1.01L185.60 1.01Q185.14 0.64 184.24 0.68L184.24 0.68L184.24 0.68Q183.24 0.72 181.99 1.40L181.99 1.40L181.99 1.40Q181.81 1.50 181.84 1.60L181.84 1.60L181.84 1.60Q181.88 1.70 182.08 1.71L182.08 1.71L182.08 1.71Q182.57 1.72 183.11 1.44L183.11 1.44L183.11 1.44Q183.12 1.43 183.14 1.42L183.14 1.42L183.14 1.42Q183.18 1.39 183.26 1.35L183.26 1.35L183.26 1.35Q183.31 1.34 183.38 1.31L183.38 1.31L183.38 1.31Q183.41 1.29 183.52 1.26L183.52 1.26L183.52 1.26L183.52 1.26Q183.53 1.25 183.53 1.26L183.53 1.26L183.53 1.26Q183.54 1.25 183.56 1.25L183.56 1.25L183.56 1.25Q183.59 1.25 183.63 1.26L183.63 1.26L183.63 1.26Q183.64 1.26 183.66 1.26L183.66 1.26L183.66 1.26Q183.71 1.26 183.71 1.26L183.71 1.26L183.71 1.26Q183.79 1.28 183.89 1.31L183.89 1.31L183.89 1.31Q183.90 1.31 183.90 1.31L183.90 1.31L183.90 1.31Q183.90 1.31 183.91 1.31L183.91 1.31L183.91 1.31Q183.93 1.33 183.98 1.35L183.98 1.35L183.98 1.35Q184.04 1.37 184.12 1.43L184.12 1.43L184.12 1.43Q184.25 1.51 184.38 1.65L184.38 1.65L184.38 1.65Q184.58 1.85 184.73 2.23L184.73 2.23L184.73 2.23Q185.33 3.66 184.80 6.11L184.80 6.11L184.80 6.11Q184.45 7.70 183.74 8.97L183.74 8.97L183.74 8.97Q183.38 9.60 182.98 10.03L182.98 10.03L182.98 10.03Q182.80 10.22 182.59 10.39L182.59 10.39L182.59 10.39Q183.67 5.68 184.14 1.78L184.14 1.78L184.14 1.78Q184.15 1.71 183.93 1.70L183.93 1.70L183.93 1.70Q183.71 1.69 183.44 1.74L183.44 1.74L183.44 1.74Q182.71 1.87 182.68 2.17L182.68 2.17L182.68 2.17Q182.21 6.19 181.03 11.16L181.03 11.16L181.03 11.16Q180.97 11.42 181.61 11.30L181.61 11.30L181.61 11.30Q181.91 11.25 182.16 11.12L182.16 11.12L182.16 11.12Q182.36 11.03 182.42 10.97L182.42 10.97L182.42 10.97Q182.69 10.93 183.07 10.77L183.07 10.77L183.07 10.77Q184.64 10.12 185.62 7.78L185.62 7.78L185.62 7.78Q186.53 5.63 186.49 3.48L186.49 3.48ZM210.14 2.21L210.14 2.21Q210.10 2.05 209.54 2.15L209.54 2.15L209.54 2.15Q208.84 2.28 208.68 2.54L208.68 2.54L208.68 2.54Q207.81 4.03 206.87 6.51L206.87 6.51L206.87 6.41L206.87 6.41Q206.87 5.55 206.71 2.12L206.71 2.12L206.71 2.12Q206.70 2.03 206.47 2.02L206.47 2.02L206.47 2.02Q206.32 1.92 205.91 2.00L205.91 2.00L205.91 2.00Q205.19 2.13 205.05 2.39L205.05 2.39L205.05 2.39Q202.92 6.30 202.31 11.14L202.31 11.14L202.31 11.14Q202.30 11.27 202.68 11.23L202.68 11.23L202.68 11.23Q202.92 11.21 203.10 11.16L203.10 11.16L203.10 11.16Q203.75 10.99 203.77 10.75L203.77 10.75L203.77 10.75Q204.18 7.51 205.34 4.58L205.34 4.58L205.34 4.58Q205.40 5.81 205.41 6.71L205.41 6.71L205.41 6.71Q205.41 8.26 205.33 8.86L205.33 8.86L205.33 8.86Q205.15 10.15 205.14 10.99L205.14 10.99L205.14 10.99Q205.14 11.20 205.82 11.03L205.82 11.03L205.82 11.03Q206.50 10.86 206.59 10.66L206.59 10.66L206.59 10.66Q207.07 9.61 207.79 7.67L207.79 7.67L207.79 7.67Q208.57 5.54 208.94 4.66L208.94 4.66L208.94 4.66Q208.98 5.91 208.74 7.85L208.74 7.85L208.74 7.85Q208.41 10.57 208.37 11.04L208.37 11.04L208.37 11.04Q208.37 11.12 208.58 11.12L208.58 11.12L208.58 11.12Q208.80 11.13 209.08 11.08L209.08 11.08L209.08 11.08Q209.81 10.94 209.84 10.65L209.84 10.65L209.84 10.65Q209.89 9.88 210.07 8.54L210.07 8.54L210.07 8.54Q210.26 7.03 210.32 6.43L210.32 6.43L210.32 6.43Q210.56 3.95 210.14 2.21L210.14 2.21ZM220.72 5.20L220.72 5.20Q220.60 6.64 220.33 7.92L220.33 7.92L220.33 7.92Q219.92 9.88 219.15 10.64L219.15 10.64L219.15 10.64Q219.06 10.55 218.98 10.38L218.98 10.38L218.98 10.38Q218.80 9.97 218.81 9.03L218.81 9.03L218.81 9.03Q218.84 7.34 219.41 5.48L219.41 5.48L219.41 5.48Q219.91 3.85 220.61 3.01L220.61 3.01L220.61 3.01Q220.68 3.25 220.73 3.62L220.73 3.62L220.73 3.62Q220.80 4.21 220.72 5.20L220.72 5.20ZM221.65 1.96L221.65 1.96Q221.44 1.79 220.71 2.05L220.71 2.05L220.71 2.05Q220.21 2.24 220.23 2.39L220.23 2.39L220.23 2.39Q219.97 2.48 219.80 2.63L219.80 2.63L219.80 2.63Q218.81 3.40 218.15 5.22L218.15 5.22L218.15 5.22Q217.60 6.70 217.41 8.50L217.41 8.50L217.41 8.50Q217.33 9.28 217.36 9.92L217.36 9.92L217.36 9.92Q217.40 10.77 217.76 11.13L217.76 11.13L217.76 11.13Q217.94 11.31 218.37 11.33L218.37 11.33L218.37 11.33Q218.91 11.36 219.74 11.02L219.74 11.02L219.74 11.02Q220.42 10.74 220.94 9.94L220.94 9.94L220.94 9.94Q221.42 9.21 221.73 7.85L221.73 7.85L221.73 7.85Q221.94 6.94 222.07 5.84L222.07 5.84L222.07 5.84Q222.23 4.44 222.23 3.78L222.23 3.78L222.23 3.78Q222.22 2.45 221.65 1.96L221.65 1.96ZM235.00 0.74L235.00 0.74Q234.69 0.79 234.44 0.91L234.44 0.91L234.44 0.91Q234.17 1.04 234.14 1.13L234.14 1.13L234.14 1.13Q233.26 3.96 232.63 7.39L232.63 7.39L232.63 7.39Q232.55 6.88 232.44 6.21L232.44 6.21L232.44 6.21Q232.14 4.44 232.09 4.05L232.09 4.05L232.09 4.05Q231.94 2.77 231.75 2.37L231.75 2.37L231.75 2.37Q231.75 2.37 231.74 2.35L231.74 2.35L231.75 2.34L231.75 2.34Q231.75 2.34 231.75 2.33L231.75 2.33L231.75 2.33Q231.79 2.08 231.16 2.20L231.16 2.20L231.16 2.20Q230.86 2.26 230.60 2.37L230.60 2.37L230.60 2.37Q230.32 2.51 230.30 2.60L230.30 2.60L230.30 2.60Q230.12 3.71 229.48 6.73L229.48 6.73L229.48 6.73Q228.93 9.34 228.72 10.89L228.72 10.89L228.72 10.89Q228.71 11.01 229.09 10.98L229.09 10.98L229.09 10.98Q229.35 10.96 229.52 10.91L229.52 10.91L229.52 10.91Q230.16 10.74 230.19 10.50L230.19 10.50L230.19 10.50Q230.38 8.97 230.94 6.38L230.94 6.38L230.94 6.38Q230.97 6.54 230.97 6.61L230.97 6.61L230.97 6.61Q231.19 7.90 231.37 8.95L231.37 8.95L231.37 8.95Q231.63 10.45 231.85 11.09L231.85 11.09L231.85 11.09Q231.91 11.24 232.25 11.21L232.25 11.21L232.25 11.21Q232.57 11.18 232.90 11.05L232.90 11.05L232.90 11.05Q233.49 10.89 233.52 10.65L233.52 10.65L233.52 10.65Q234.29 5.00 235.58 0.87L235.58 0.87L235.58 0.87Q235.66 0.62 235.00 0.74L235.00 0.74ZM246.63 5.50L246.63 5.50Q247.08 4.74 247.29 3.53L247.29 3.53L247.29 3.53Q247.53 2.15 247.03 1.57L247.03 1.57L247.03 1.57Q246.74 1.22 245.99 1.27L245.99 1.27L245.99 1.27Q245.05 1.33 244.16 1.85L244.16 1.85L244.16 1.85Q242.91 2.59 242.30 4.34L242.30 4.34L242.30 4.34Q241.68 6.10 242.30 7.18L242.30 7.18L242.30 7.18Q242.59 7.68 243.97 8.17L243.97 8.17L243.97 8.17Q244.54 8.37 244.74 8.48L244.74 8.48L244.74 8.48Q245.18 8.74 245.27 9.11L245.27 9.11L245.27 9.11Q245.36 9.50 245.02 10.17L245.02 10.17L245.02 10.17Q244.84 10.51 244.56 10.76L244.56 10.76L244.56 10.76Q244.45 10.87 244.29 10.97L244.29 10.97L244.29 10.97Q244.21 11.02 244.19 11.03L244.19 11.03L244.19 11.03Q244.13 11.07 244.07 11.09L244.07 11.09L244.07 11.09Q244.17 11.05 244.04 11.10L244.04 11.10L244.04 11.10Q244.05 11.10 244.11 11.09L244.11 11.09L244.11 11.09Q244.07 11.09 244.02 11.09L244.02 11.09L244.02 11.09Q244.02 11.10 243.92 11.09L243.92 11.09L243.92 11.09Q243.87 11.09 243.72 11.05L243.72 11.05L243.72 11.05Q243.37 10.97 243.07 10.64L243.07 10.64L243.07 10.64Q242.85 10.39 242.76 9.93L242.76 9.93L242.76 9.93Q242.66 9.44 242.88 9.28L242.88 9.28L242.88 9.28Q243.08 9.13 243.06 9.06L243.06 9.06L243.06 9.06Q243.03 8.97 242.80 8.96L242.80 8.96L242.80 8.96Q242.18 8.95 241.77 9.24L241.77 9.24L241.77 9.24Q241.38 9.53 241.30 9.86L241.30 9.86L241.30 9.86Q241.22 10.20 241.38 10.62L241.38 10.62L241.38 10.62Q241.65 11.36 242.52 11.61L242.52 11.61L242.52 11.61Q243.41 11.87 244.68 11.37L244.68 11.37L244.68 11.37Q245.69 10.96 246.26 10.24L246.26 10.24L246.26 10.24Q246.63 9.76 246.72 9.24L246.72 9.24L246.72 9.24Q246.83 8.62 246.44 8.23L246.44 8.23L246.44 8.23Q246.18 7.96 245.62 7.75L245.62 7.75L245.62 7.75Q245.46 7.70 245.15 7.59L245.15 7.59L245.15 7.59Q244.86 7.50 244.73 7.44L244.73 7.44L244.73 7.44Q244.19 7.23 243.91 6.97L243.91 6.97L243.91 6.97Q243.61 6.69 243.51 5.96L243.51 5.96L243.51 5.96Q243.31 4.53 244.26 2.97L244.26 2.97L244.26 2.97Q244.68 2.29 245.18 1.95L245.18 1.95L245.18 1.95Q245.23 1.91 245.33 1.86L245.33 1.86L245.33 1.86Q245.32 1.86 245.38 1.84L245.38 1.84L245.38 1.84Q245.36 1.84 245.40 1.83L245.40 1.83L245.40 1.83Q245.38 1.84 245.42 1.83L245.42 1.83L245.42 1.83Q245.34 1.85 245.27 1.85L245.27 1.85L245.27 1.85Q245.29 1.85 245.27 1.85L245.27 1.85L245.29 1.85L245.29 1.85Q245.35 1.86 245.43 1.89L245.43 1.89L245.43 1.89Q245.44 1.89 245.54 1.96L245.54 1.96L245.54 1.96Q245.61 2.01 245.65 2.06L245.65 2.06L245.65 2.06Q245.77 2.20 245.83 2.45L245.83 2.45L245.83 2.45Q245.95 2.84 245.89 3.49L245.89 3.49L245.89 3.49Q245.77 4.81 245.19 5.76L245.19 5.76L245.19 5.76Q245.10 5.90 245.41 5.91L245.41 5.91L245.41 5.91Q245.61 5.92 245.77 5.89L245.77 5.89L245.77 5.89Q246.47 5.76 246.63 5.50L246.63 5.50ZM258.73 2.35L258.73 2.35Q257.77 2.17 256.76 2.15L256.76 2.15L256.76 2.15Q256.67 2.03 256.19 2.11L256.19 2.11L256.19 2.11Q256.09 2.13 255.98 2.16L255.98 2.16L255.98 2.16Q254.91 2.22 253.87 2.46L253.87 2.46L253.87 2.46Q253.13 2.63 253.20 2.88L253.20 2.88L253.20 2.88Q253.25 3.08 253.98 2.91L253.98 2.91L253.98 2.91Q253.98 2.91 254.00 2.90L254.00 2.90L254.00 2.90Q254.01 2.90 254.02 2.89L254.02 2.89L254.02 2.89Q254.10 2.88 254.26 2.85L254.26 2.85L254.26 2.85Q254.42 2.82 254.65 2.80L254.65 2.80L254.65 2.80Q254.93 2.76 255.26 2.75L255.26 2.75L255.26 2.75Q253.85 7.40 253.45 10.96L253.45 10.96L253.45 10.96Q253.44 11.02 253.67 11.03L253.67 11.03L253.67 11.03Q253.88 11.04 254.16 10.99L254.16 10.99L254.16 10.99Q254.88 10.86 254.91 10.56L254.91 10.56L254.91 10.56Q255.29 7.19 256.61 2.78L256.61 2.78L256.61 2.78Q257.08 2.82 257.52 2.91L257.52 2.91L257.52 2.91Q257.95 2.99 258.54 2.72L258.54 2.72L258.54 2.72Q258.70 2.65 258.79 2.54L258.79 2.54L258.79 2.54Q258.94 2.39 258.73 2.35L258.73 2.35ZM269.14 1.42L269.14 1.42Q268.43 1.19 267.25 1.57L267.25 1.57L267.25 1.57Q265.74 2.06 265.18 3.77L265.18 3.77L265.18 3.77Q264.83 4.83 265.01 6.11L265.01 6.11L265.01 6.11Q265.10 6.76 265.36 7.16L265.36 7.16L265.36 7.16Q264.95 7.38 264.65 7.70L264.65 7.70L264.65 7.70Q263.66 8.80 263.76 10.01L263.76 10.01L263.76 10.01Q263.83 10.70 264.31 11.11L264.31 11.11L264.31 11.11Q264.71 11.44 265.54 11.42L265.54 11.42L265.54 11.42Q266.37 11.39 267.07 10.95L267.07 10.95L267.07 10.95Q267.83 10.49 268.13 9.76L268.13 9.76L268.13 9.76Q268.19 9.61 267.91 9.60L267.91 9.60L267.91 9.60Q267.74 9.59 267.54 9.63L267.54 9.63L267.54 9.63Q266.79 9.76 266.69 10.02L266.69 10.02L266.69 10.02Q266.49 10.51 266.14 10.80L266.14 10.80L266.14 10.80Q266.13 10.81 266.12 10.82L266.12 10.82L266.12 10.82Q266.07 10.81 266.06 10.81L266.06 10.81L266.06 10.81Q265.99 10.79 265.91 10.75L265.91 10.75L265.91 10.75Q265.75 10.68 265.59 10.52L265.59 10.52L265.59 10.52Q265.30 10.23 265.23 9.63L265.23 9.63L265.23 9.63Q265.13 8.83 265.76 7.86L265.76 7.86L265.76 7.86Q265.84 7.74 265.95 7.62L265.95 7.62L265.95 7.62Q266.16 7.70 266.43 7.72L266.43 7.72L266.43 7.72Q266.83 7.74 267.33 7.51L267.33 7.51L267.33 7.51Q267.74 7.32 267.59 7.18L267.59 7.18L267.59 7.18Q267.31 6.90 266.88 6.84L266.88 6.84L266.88 6.84Q266.84 6.79 266.81 6.75L266.81 6.75L266.81 6.75Q266.60 6.45 266.49 5.89L266.49 5.89L266.49 5.89Q266.30 4.89 266.49 4.00L266.49 4.00L266.49 4.00Q266.75 2.70 267.52 2.04L267.52 2.04L267.52 2.04Q267.57 2.00 267.67 1.93L267.67 1.93L267.67 1.93Q267.67 1.93 267.67 1.93L267.67 1.93L267.67 1.93Q267.80 1.94 267.78 1.93L267.78 1.93L267.78 1.93Q268.37 2.02 268.25 2.62L268.25 2.62L268.25 2.62Q268.20 2.86 268.83 2.75L268.83 2.75L268.83 2.75Q269.14 2.69 269.39 2.58L269.39 2.58L269.39 2.58Q269.67 2.45 269.69 2.36L269.69 2.36L269.69 2.36Q269.83 1.63 269.14 1.42L269.14 1.42ZM279.40 5.31L279.40 5.31Q279.25 6.24 278.35 7.18L278.35 7.18L278.35 7.18Q278.16 7.38 277.92 7.58L277.92 7.58L277.92 7.58Q277.86 7.63 277.80 7.68L277.80 7.68L277.80 7.68Q277.58 7.59 277.33 7.58L277.33 7.58L277.33 7.58Q277.89 4.74 278.03 2.66L278.03 2.66L278.03 2.66Q278.30 2.80 278.54 2.99L278.54 2.99L278.54 2.99Q279.05 3.39 279.28 4.03L279.28 4.03L279.28 4.03Q279.51 4.65 279.40 5.31L279.40 5.31ZM276.42 2.40L276.42 2.40Q276.42 2.40 276.44 2.39L276.44 2.39L276.44 2.39Q276.43 2.40 276.42 2.40L276.42 2.40ZM281.36 11.42L281.36 11.42Q280.63 10.88 279.10 8.99L279.10 8.99L279.10 8.99Q278.43 8.17 278.31 8.05L278.31 8.05L278.31 8.05Q278.77 7.84 279.20 7.50L279.20 7.50L279.20 7.50Q280.40 6.56 280.76 5.41L280.76 5.41L280.76 5.41Q281.00 4.60 280.80 3.84L280.80 3.84L280.80 3.84Q280.59 3.07 279.97 2.53L279.97 2.53L279.97 2.53Q278.72 1.46 276.65 1.88L276.65 1.88L276.65 1.88Q276.52 1.91 276.32 1.96L276.32 1.96L276.32 1.96Q275.58 2.14 275.65 2.37L275.65 2.37L275.65 2.37Q275.71 2.58 276.42 2.40L276.42 2.40L276.42 2.40Q276.49 2.39 276.53 2.38L276.53 2.38L276.53 2.38Q276.58 2.37 276.61 2.37L276.61 2.37L276.61 2.37Q276.49 5.11 275.26 10.79L275.26 10.79L275.26 10.79Q275.20 11.04 275.84 10.92L275.84 10.92L275.84 10.92Q276.14 10.87 276.40 10.75L276.40 10.75L276.40 10.75Q276.68 10.62 276.70 10.53L276.70 10.53L276.70 10.53Q276.99 9.17 277.09 8.72L277.09 8.72L277.09 8.72Q277.09 8.72 277.09 8.72L277.09 8.72L277.09 8.72Q277.10 8.72 277.10 8.72L277.10 8.72L277.10 8.72Q277.21 8.85 277.89 9.70L277.89 9.70L277.89 9.70Q279.21 11.34 279.98 11.92L279.98 11.92L279.98 11.92Q280.21 12.09 280.92 11.83L280.92 11.83L280.92 11.83Q281.11 11.76 281.25 11.67L281.25 11.67L281.25 11.67Q281.50 11.52 281.36 11.42L281.36 11.42Z"></path></g></svg>