<svg data-v-423bf9ae="" xmlns="http://www.w3.org/2000/svg" viewBox="0 0 509.6202468688698 60" class="font"><!----><!----><!----><g data-v-423bf9ae="" id="461980d5-13de-48c8-a36f-f667542b3dfc" fill="white" transform="matrix(5.063291383733213,0,0,5.063291383733213,-0.607593908139421,-4.50633009355662)"><path d="M8.44 8.14L7.63 8.14L7.63 2.10L4.36 2.10L0.12 10.40L5.04 10.40L5.04 12.60L7.63 12.60L7.63 10.40L8.44 10.40ZM3.26 8.14L5.04 4.46L5.04 8.14ZM17.97 5.60L14.88 5.60L13.44 7.28L12.01 5.60L8.93 5.60L11.90 9.10L8.93 12.60L12.04 12.60L13.46 10.94L14.86 12.60L17.97 12.60L15.00 9.12ZM26.25 8.14L25.45 8.14L25.45 2.10L22.17 2.10L17.94 10.40L22.86 10.40L22.86 12.60L25.45 12.60L25.45 10.40L26.25 10.40ZM21.07 8.14L22.86 4.46L22.86 8.14ZM31.36 12.74C33.81 12.74 35.33 11.22 35.33 9.10C35.33 6.98 33.81 5.46 31.36 5.46C28.89 5.46 27.37 6.98 27.37 9.10C27.37 11.22 28.89 12.74 31.36 12.74ZM31.36 10.48C30.54 10.47 29.96 9.91 29.96 9.10C29.96 8.30 30.54 7.74 31.36 7.72C32.17 7.74 32.74 8.30 32.74 9.10C32.74 9.91 32.17 10.47 31.36 10.48ZM41.27 5.60L39.67 5.60L39.67 4.04C39.67 3.48 39.94 3.13 40.37 3.13L41.23 3.13L41.23 1.12C41.06 1.00 40.57 0.89 40.04 0.89C38.43 0.89 37.07 2.13 37.07 3.75L37.07 5.60L35.89 5.60L35.89 7.53L37.07 7.53L37.07 12.60L39.67 12.60L39.67 7.53L41.27 7.53ZM46.69 5.60L45.10 5.60L45.10 4.04C45.10 3.48 45.36 3.13 45.80 3.13L46.66 3.13L46.66 1.12C46.48 1.00 45.99 0.89 45.47 0.89C43.86 0.89 42.49 2.13 42.49 3.75L42.49 5.60L41.32 5.60L41.32 7.53L42.49 7.53L42.49 12.60L45.10 12.60L45.10 7.53L46.69 7.53ZM52.06 5.46C51.29 5.46 50.65 5.88 50.21 6.58L50.21 5.60L47.62 5.60L47.62 12.60L50.21 12.60L50.21 9.38C50.21 8.28 50.93 7.72 51.96 7.72C52.24 7.72 52.48 7.75 52.66 7.79L52.66 5.55C52.50 5.50 52.27 5.46 52.06 5.46ZM57.03 12.74C59.48 12.74 61.01 11.22 61.01 9.10C61.01 6.98 59.48 5.46 57.03 5.46C54.56 5.46 53.04 6.98 53.04 9.10C53.04 11.22 54.56 12.74 57.03 12.74ZM57.03 10.48C56.21 10.47 55.63 9.91 55.63 9.10C55.63 8.30 56.21 7.74 57.03 7.72C57.84 7.74 58.41 8.30 58.41 9.10C58.41 9.91 57.84 10.47 57.03 10.48ZM70.35 10.50C70.07 10.50 69.75 10.45 69.75 9.89L69.75 5.60L67.17 5.60L67.17 6.11C66.69 5.71 66.08 5.46 65.34 5.46C63.44 5.46 61.95 7.05 61.95 9.10C61.95 11.15 63.44 12.74 65.34 12.74C66.36 12.74 67.15 12.29 67.66 11.53C68.16 12.27 69.00 12.74 70 12.74C70.23 12.74 70.44 12.67 70.59 12.60L70.59 10.50ZM65.94 10.48C65.15 10.48 64.54 9.89 64.54 9.10C64.54 8.31 65.15 7.72 65.94 7.72C66.69 7.72 67.32 8.31 67.32 9.10C67.32 9.22 67.31 9.35 67.27 9.45L67.20 9.66C66.99 10.15 66.50 10.48 65.94 10.48ZM76.58 0.91L76.58 6.11C76.11 5.71 75.50 5.46 74.76 5.46C72.85 5.46 71.36 7.05 71.36 9.10C71.36 11.15 72.85 12.74 74.76 12.74C75.50 12.74 76.11 12.50 76.58 12.09L76.58 12.62L79.17 12.60L79.17 0.89ZM75.36 10.48C74.57 10.48 73.95 9.89 73.95 9.10C73.95 8.31 74.57 7.72 75.36 7.72C76.11 7.72 76.74 8.31 76.74 9.10C76.74 9.89 76.11 10.48 75.36 10.48ZM84.54 5.44C82.20 5.44 80.62 6.84 80.62 9.10C80.62 11.34 82.18 12.74 84.61 12.74C86.66 12.74 87.94 11.73 88.25 10.20L85.79 10.20C85.66 10.66 85.26 10.92 84.59 10.92C83.67 10.92 83.30 10.43 83.23 9.52L88.34 9.52L88.34 9.08C88.36 6.84 86.87 5.44 84.54 5.44ZM84.59 7.35C85.23 7.35 85.58 7.61 85.73 8.09L83.37 8.09C83.55 7.61 83.91 7.35 84.59 7.35ZM94.22 5.46C93.45 5.46 92.80 5.88 92.36 6.58L92.36 5.60L89.78 5.60L89.78 12.60L92.36 12.60L92.36 9.38C92.36 8.28 93.08 7.72 94.11 7.72C94.39 7.72 94.64 7.75 94.81 7.79L94.81 5.55C94.66 5.50 94.43 5.46 94.22 5.46ZM98.11 12.74C99.80 12.74 100.77 11.73 100.77 10.40C100.77 8.94 99.54 8.37 98.53 7.96C98.14 7.81 97.95 7.74 97.95 7.58C97.95 7.46 98.05 7.32 98.39 7.32C98.84 7.32 99.26 7.58 99.51 7.81L100.64 6.32C100.03 5.81 99.19 5.46 98.19 5.46C96.41 5.46 95.41 6.62 95.41 7.79C95.41 9.28 97.04 9.71 97.67 9.96C98.25 10.17 98.39 10.33 98.39 10.48C98.39 10.66 98.21 10.76 97.91 10.76C97.65 10.76 97.20 10.69 96.81 10.08L94.99 11.03C95.45 12.18 96.83 12.74 98.11 12.74Z"></path></g><!----><!----></svg>